<svg width="150" height="74" viewBox="0 0 150 74" fill="none" xmlns="http://www.w3.org/2000/svg">
<g clip-path="url(#clip0_4_110)">
<path d="M72.6044 33.703L40.2953 1.39564C38.4358 -0.465052 35.418 -0.465052 33.5561 1.39564L26.847 8.10478L35.3578 16.6157C37.3356 15.9473 39.6036 16.3957 41.1801 17.9722C42.7642 19.5589 43.2094 21.8462 42.5249 23.8304L50.727 32.0328C52.7114 31.3492 55.0011 31.7914 56.586 33.379C58.8011 35.5932 58.8011 39.1819 56.586 41.3976C54.3703 43.6135 50.7816 43.6135 48.5648 41.3976C46.8987 39.7297 46.487 37.2828 47.3305 35.2301L39.6813 27.5809L39.6805 47.7104C40.235 47.9846 40.7414 48.3467 41.1801 48.7828C43.3952 50.997 43.3952 54.586 41.1801 56.8034C38.9645 59.0182 35.374 59.0182 33.1615 56.8034C30.9465 54.586 30.9465 50.9973 33.1615 48.7831C33.6924 48.252 34.3232 47.8314 35.0176 47.5456V27.2286C34.3222 26.9447 33.691 26.5239 33.1615 25.9911C31.4832 24.3151 31.0797 21.8526 31.9397 19.7919L23.5499 11.4013L1.39617 33.5536C-0.465391 35.416 -0.465391 38.4341 1.39617 40.2951L33.7058 72.603C35.566 74.464 38.5832 74.464 40.4456 72.603L72.6041 40.4451C74.4651 38.5835 74.4651 35.5637 72.6041 33.703" fill="#DE4C36"/>
</g>
<path d="M80.9219 28.3867C80.1719 28.3867 79.4102 28.4688 78.6367 28.6328C77.8711 28.7891 77.0664 29.082 76.2227 29.5117C75.3867 29.9414 74.6484 30.4844 74.0078 31.1406C73.3672 31.7969 72.8398 32.6719 72.4258 33.7656C72.0117 34.8516 71.8047 36.082 71.8047 37.457C71.8047 38.832 72.0117 40.0664 72.4258 41.1602C72.8398 42.2461 73.3672 43.1133 74.0078 43.7617C74.6484 44.4023 75.3867 44.9375 76.2227 45.3672C77.0664 45.7891 77.8711 46.0781 78.6367 46.2344C79.4102 46.3984 80.1719 46.4805 80.9219 46.4805C82.1016 46.4805 83.1602 46.3672 84.0977 46.1406C85.0352 45.9219 86.0977 45.5781 87.2852 45.1094C86.9336 44.1484 86.7578 42.9336 86.7578 41.4648V39.7305C86.7578 39.1602 88.0586 38.7852 90.6602 38.6055C90.7461 38.418 90.7461 38.2344 90.6602 38.0547C88.6133 38.1172 87.0156 38.1484 85.8672 38.1484C84.9062 38.1484 83.5469 38.1172 81.7891 38.0547C81.7344 38.2344 81.7344 38.418 81.7891 38.6055C83.5938 38.7852 84.4961 39.1602 84.4961 39.7305V44.4883C83.8242 45.2539 82.6328 45.6367 80.9219 45.6367C80.0078 45.6367 79.1758 45.4688 78.4258 45.1328C77.6758 44.7969 77.0547 44.3555 76.5625 43.8086C76.0781 43.2539 75.6719 42.6133 75.3438 41.8867C75.0156 41.1602 74.7773 40.4297 74.6289 39.6953C74.4883 38.9531 74.418 38.207 74.418 37.457C74.418 36.4961 74.5352 35.5586 74.7695 34.6445C75.0117 33.7227 75.375 32.8477 75.8594 32.0195C76.3516 31.1836 77.0312 30.5078 77.8984 29.9922C78.7734 29.4766 79.7812 29.2188 80.9219 29.2188C81.6875 29.2188 82.3984 29.3398 83.0547 29.582C83.7109 29.8242 84.25 30.1094 84.6719 30.4375C85.1016 30.7656 85.5156 31.207 85.9141 31.7617C86.3125 32.3086 86.6133 32.7852 86.8164 33.1914C87.0273 33.5898 87.2773 34.0977 87.5664 34.7148C87.8086 34.6836 87.9531 34.5977 88 34.457C87.4219 32.1367 86.5469 30.5469 85.375 29.6875C84.2109 28.8203 82.7266 28.3867 80.9219 28.3867ZM87.2852 35.2422C86.9492 34.4922 86.6406 33.875 86.3594 33.3906C86.0781 32.8984 85.6992 32.3516 85.2227 31.75C84.7539 31.1406 84.1953 30.668 83.5469 30.332C82.8984 29.9961 82.1758 29.793 81.3789 29.7227C80.4648 29.7773 79.6602 30.0547 78.9648 30.5547C78.2695 31.0469 77.7305 31.6797 77.3477 32.4531C76.9648 33.2266 76.6797 34.0352 76.4922 34.8789C76.3047 35.7148 76.2109 36.5742 76.2109 37.457C76.2109 38.6758 76.375 39.8398 76.7031 40.9492C77.0312 42.0586 77.6055 43.0391 78.4258 43.8906C79.2539 44.7344 80.2695 45.1562 81.4727 45.1562C82.5898 45.1562 83.4375 44.8711 84.0156 44.3008V39.7305C84.0156 39.4648 83.1445 39.2422 81.4023 39.0625C81.1914 38.5156 81.207 38.0117 81.4492 37.5508C83.7852 37.6602 87.0156 37.6836 91.1406 37.6211C91.3203 38.0898 91.3281 38.5703 91.1641 39.0625C89.4219 39.2422 88.5508 39.4648 88.5508 39.7305V41.4648C88.5508 42.8867 88.7734 44.1992 89.2188 45.4023C88.1172 45.8164 87.2969 46.1016 86.7578 46.2578C86.2266 46.4219 85.4531 46.5781 84.4375 46.7266C83.4219 46.8828 82.25 46.9609 80.9219 46.9609C80.1172 46.9609 79.3125 46.875 78.5078 46.7031C77.7031 46.5391 76.8594 46.2344 75.9766 45.7891C75.0938 45.3359 74.3164 44.7695 73.6445 44.0898C72.9727 43.4102 72.418 42.5 71.9805 41.3594C71.543 40.2109 71.3242 38.9102 71.3242 37.457C71.3242 36.0039 71.5391 34.707 71.9688 33.5664C72.3984 32.418 72.9453 31.5 73.6094 30.8125C74.2734 30.125 75.0391 29.5547 75.9062 29.1016C76.7812 28.6406 77.6172 28.3281 78.4141 28.1641C79.2188 27.9922 80.0234 27.9062 80.8281 27.9062C82.125 27.9062 83.5625 28.0703 85.1406 28.3984C86.7266 28.7266 87.7344 28.9141 88.1641 28.9609C87.9141 29.9688 87.8164 30.8555 87.8711 31.6211C87.9258 32.3789 88.1445 33.3086 88.5273 34.4102C88.3008 34.8711 87.8867 35.1484 87.2852 35.2422Z" fill="white"/>
<path d="M93.5453 29.5352C95.3109 29.5352 96.1938 30.1758 96.1938 31.457C96.1938 32.7383 95.3109 33.3789 93.5453 33.3789C93.2797 33.3789 93.0297 33.3281 92.7953 33.2266C92.5688 33.125 92.3695 32.9883 92.1977 32.8164C92.0258 32.6367 91.8891 32.4297 91.7875 32.1953C91.6859 31.9609 91.6352 31.7148 91.6352 31.457C91.6352 31.1992 91.6859 30.9531 91.7875 30.7188C91.8891 30.4844 92.0258 30.2812 92.1977 30.1094C92.3695 29.9297 92.5688 29.7891 92.7953 29.6875C93.0297 29.5859 93.2797 29.5352 93.5453 29.5352ZM92.4672 30.4492C92.2328 30.7227 92.1156 31.0586 92.1156 31.457C92.1156 31.6602 92.1469 31.8516 92.2094 32.0312C92.2797 32.2031 92.3734 32.3555 92.4906 32.4883C92.6078 32.6133 92.7406 32.7148 92.8891 32.793C93.0453 32.8633 93.2094 32.8984 93.3813 32.8984C93.5453 32.8984 93.7055 32.8633 93.8617 32.793C94.018 32.7148 94.1547 32.6133 94.2719 32.4883C94.3891 32.3555 94.4828 32.2031 94.5531 32.0312C94.6234 31.8516 94.6586 31.6602 94.6586 31.457C94.6586 31.2539 94.6234 31.0664 94.5531 30.8945C94.4828 30.7148 94.3891 30.5625 94.2719 30.4375C94.1547 30.3047 94.018 30.2031 93.8617 30.1328C93.7055 30.0547 93.5453 30.0156 93.3813 30.0156C93.2172 30.0156 93.057 30.0508 92.9008 30.1211C92.7445 30.1914 92.6 30.3008 92.4672 30.4492ZM97.2016 45.4609C95.3422 45.2891 94.4047 44.9141 94.3891 44.3359C94.3109 41.9922 94.2797 39.1133 94.2953 35.6992C94.2328 35.5742 94.0961 35.4727 93.8852 35.3945C92.7992 35.9023 91.6703 36.2227 90.4984 36.3555C90.4516 36.543 90.4516 36.7266 90.4984 36.9062C91.3813 36.9531 92.0531 37.1133 92.5141 37.3867C92.5844 40.3008 92.5766 42.6172 92.4906 44.3359C92.475 44.9141 91.8109 45.2891 90.4984 45.4609C90.4203 45.6562 90.4203 45.8477 90.4984 46.0352C92.7406 45.9883 94.975 45.9883 97.2016 46.0352C97.2797 45.8477 97.2797 45.6562 97.2016 45.4609ZM97.6352 45.0273C97.7602 45.5117 97.7602 45.9844 97.6352 46.4453C95.1195 46.3672 92.6 46.3672 90.0766 46.4453C89.9438 45.9844 89.9438 45.5117 90.0766 45.0273C91.35 44.9023 91.9945 44.6641 92.0102 44.3125C92.1117 42.125 92.1195 39.9102 92.0336 37.668C91.5102 37.5117 90.8578 37.4102 90.0766 37.3633C89.8969 36.8945 89.8969 36.3984 90.0766 35.875C91.2563 35.8125 92.5844 35.4609 94.0609 34.8203C94.9047 34.8828 95.5336 35.1367 95.9477 35.582C95.9164 39.4258 95.9477 42.3359 96.0414 44.3125C96.0648 44.6641 96.5961 44.9023 97.6352 45.0273Z" fill="white"/>
<path d="M100.755 36.7656H105.36C105.47 36.4609 105.47 36.1797 105.36 35.9219H100.755V33.3555C100.559 33.2695 100.364 33.2695 100.169 33.3555C99.8797 33.8945 99.5594 34.3672 99.2078 34.7734C98.8563 35.1719 98.5594 35.4531 98.3172 35.6172C98.0828 35.7734 97.743 35.9766 97.2977 36.2266C97.243 36.3906 97.243 36.5703 97.2977 36.7656H98.7273V42.9062C98.7273 45.1953 99.6727 46.3398 101.563 46.3398C102.368 46.3398 103.11 46.1328 103.79 45.7188C104.47 45.2969 104.977 44.7812 105.313 44.1719C105.243 44 105.114 43.9062 104.927 43.8906C104.192 44.5469 103.481 44.875 102.794 44.875C101.434 44.875 100.755 44.2578 100.755 43.0234V36.7656ZM104.786 43.3867C105.278 43.4492 105.63 43.7188 105.841 44.1953C105.434 44.9375 104.845 45.5586 104.071 46.0586C103.298 46.5664 102.462 46.8203 101.563 46.8203C99.3602 46.8203 98.2586 45.5156 98.2586 42.9062V37.2344H96.8172C96.7 36.8203 96.7 36.3906 96.8172 35.9453C97.2938 35.6719 97.657 35.4492 97.907 35.2773C98.157 35.0977 98.4695 34.8086 98.8445 34.4102C99.2195 34.0117 99.5516 33.5312 99.8406 32.9688C100.575 32.6641 101.43 32.6797 102.407 33.0156V35.4414H105.817C106.067 36.0195 106.067 36.6172 105.817 37.2344H102.407V43.0234C102.407 43.7734 102.677 44.2148 103.216 44.3477C103.684 44.2461 104.208 43.9258 104.786 43.3867Z" fill="white"/>
<path d="M116.685 45.4609C116.591 45.6406 116.591 45.832 116.685 46.0352C118.716 45.9883 120.748 45.9883 122.779 46.0352C122.896 45.8477 122.896 45.6562 122.779 45.4609C120.88 45.3672 119.923 44.9922 119.908 44.3359L119.779 38.4414C119.748 37.3711 119.576 36.5898 119.263 36.0977C118.951 35.5977 118.412 35.3477 117.646 35.3477C116.349 35.3477 114.806 36.2422 113.017 38.0312V28.457C112.955 28.332 112.818 28.2266 112.607 28.1406C111.521 28.6562 110.392 28.9766 109.22 29.1016C109.173 29.2969 109.173 29.4805 109.22 29.6523C110.119 29.6992 110.783 29.8594 111.213 30.1328V44.3359C111.197 44.9141 110.525 45.2891 109.197 45.4609C109.103 45.6406 109.103 45.832 109.197 46.0352C111.244 45.957 113.283 45.957 115.314 46.0352C115.416 45.832 115.416 45.6406 115.314 45.4609C113.861 45.3047 113.127 44.9297 113.111 44.3359C113.048 42.6719 113.017 40.8203 113.017 38.7812C114.58 37.3984 115.81 36.707 116.709 36.707C117.56 36.707 117.986 37.4141 117.986 38.8281L117.963 44.3359C117.963 44.7188 117.845 44.9883 117.611 45.1445C117.377 45.293 117.068 45.3984 116.685 45.4609ZM116.298 46.4453C116.111 45.9844 116.111 45.5117 116.298 45.0273C116.556 45.0273 116.818 44.9609 117.084 44.8281C117.349 44.6875 117.482 44.5234 117.482 44.3359L117.505 38.8281C117.505 37.9766 117.338 37.457 117.002 37.2695C116.423 37.4102 115.646 37.832 114.67 38.5352C114.67 40.6445 114.701 42.5703 114.763 44.3125C114.795 44.7266 115.107 44.9648 115.701 45.0273C115.896 45.5117 115.896 45.9844 115.701 46.4453C113.412 46.3672 111.107 46.3672 108.787 46.4453C108.599 45.9844 108.599 45.5117 108.787 45.0273C110.068 44.8555 110.716 44.6172 110.732 44.3125V30.4258C110.209 30.2617 109.56 30.1562 108.787 30.1094C108.615 29.6484 108.615 29.1523 108.787 28.6211C109.974 28.5586 111.302 28.207 112.771 27.5664C113.623 27.6289 114.255 27.8867 114.67 28.3398V35.9688C115.771 35.2344 117.045 34.8672 118.49 34.8672C119.545 34.8672 120.295 35.1562 120.74 35.7344C121.193 36.3047 121.427 37.207 121.443 38.4414C121.474 41.5039 121.513 43.4688 121.56 44.3359C121.576 44.6562 122.127 44.8867 123.213 45.0273C123.392 45.543 123.377 46.0156 123.166 46.4453C120.877 46.3984 118.588 46.3984 116.298 46.4453Z" fill="white"/>
<path d="M130.445 43.1641C130.508 41.2109 130.508 39.2539 130.445 37.293C130.445 37.0195 129.855 36.7852 128.676 36.5898C128.496 36.1133 128.496 35.6406 128.676 35.1719H133.738C133.957 35.2578 134.113 35.3516 134.207 35.4531C134.309 35.5547 134.398 35.7031 134.477 35.8984C134.477 36.0391 134.457 36.2617 134.418 36.5664C134.379 36.8711 134.359 37.1133 134.359 37.293C134.281 39.8633 134.281 42.1016 134.359 44.0078C134.922 44.1875 135.516 44.293 136.141 44.3242C136.312 44.7852 136.312 45.2812 136.141 45.8125C135.117 45.875 133.852 46.2266 132.344 46.8672C131.492 46.8047 130.859 46.5469 130.445 46.0938V45.7891C129.375 46.4766 128.105 46.8203 126.637 46.8203C125.574 46.8203 124.82 46.5312 124.375 45.9531C123.93 45.375 123.699 44.4688 123.684 43.2344C123.699 41.2734 123.699 39.293 123.684 37.293C123.684 37.0195 123.09 36.7852 121.902 36.5898C121.73 36.1133 121.73 35.6406 121.902 35.1719H126.988C127.215 35.2578 127.375 35.3516 127.469 35.4531C127.57 35.5547 127.66 35.7031 127.738 35.8984C127.738 36.0391 127.719 36.2617 127.68 36.5664C127.641 36.8711 127.621 37.1133 127.621 37.293C127.566 39.1133 127.566 40.9688 127.621 42.8594C127.652 43.75 127.812 44.2695 128.102 44.418C128.672 44.2695 129.453 43.8516 130.445 43.1641ZM130.926 37.293C130.973 39.3242 130.973 41.3633 130.926 43.4102C129.473 44.4492 128.352 44.9688 127.562 44.9688C126.492 44.9688 125.957 44.2656 125.957 42.8594C125.91 40.9688 125.91 39.1133 125.957 37.293C125.957 37.082 125.977 36.8281 126.016 36.5312C126.062 36.2344 126.086 36.0469 126.086 35.9688C126 35.7891 125.887 35.668 125.746 35.6055C124.59 35.6836 123.438 35.6836 122.289 35.6055C122.227 35.7852 122.227 35.9688 122.289 36.1562C123.523 36.3516 124.148 36.7305 124.164 37.293C124.18 39.2773 124.18 41.2578 124.164 43.2344C124.148 44.2969 124.332 45.082 124.715 45.5898C125.098 46.0898 125.738 46.3398 126.637 46.3398C127.816 46.3398 129.246 45.6094 130.926 44.1484V45.8594C130.988 45.9844 131.125 46.0859 131.336 46.1641C132.453 45.75 133.902 45.4727 135.684 45.332C135.746 45.1367 135.746 44.9531 135.684 44.7812C134.34 44.7266 133.348 44.5664 132.707 44.3008C132.645 41.5117 132.645 39.1758 132.707 37.293C132.707 37.082 132.727 36.8281 132.766 36.5312C132.805 36.2344 132.824 36.0469 132.824 35.9688C132.746 35.7891 132.633 35.668 132.484 35.6055C131.352 35.668 130.207 35.668 129.051 35.6055C128.988 35.7852 128.988 35.9688 129.051 36.1562C130.285 36.3516 130.91 36.7305 130.926 37.293Z" fill="white"/>
<path d="M141.979 36.8828C142.909 36.8828 143.612 37.2578 144.088 38.0078C144.573 38.7578 144.815 39.7109 144.815 40.8672C144.815 42.5625 144.514 43.7695 143.912 44.4883C143.311 45.207 142.659 45.5664 141.955 45.5664C140.698 45.5664 139.764 45.1016 139.155 44.1719C139.123 42.6094 139.108 40.5625 139.108 38.0312C139.998 37.2656 140.955 36.8828 141.979 36.8828ZM135.077 29.1484C135.037 29.3906 135.037 29.5742 135.077 29.6992C136.131 29.7539 136.881 29.9141 137.327 30.1797C137.389 36.0078 137.389 40.8984 137.327 44.8516C138.514 45.8438 139.924 46.3398 141.557 46.3398C142.479 46.3398 143.291 46.1562 143.995 45.7891C144.705 45.4141 145.26 44.9297 145.659 44.3359C146.057 43.7344 146.354 43.0938 146.549 42.4141C146.752 41.7344 146.854 41.0352 146.854 40.3164C146.854 38.793 146.506 37.5859 145.811 36.6953C145.116 35.7969 144.217 35.3477 143.116 35.3477C141.756 35.3477 140.42 35.9375 139.108 37.1172V28.5039C139.037 28.3789 138.901 28.2734 138.698 28.1875C137.659 28.6875 136.452 29.0078 135.077 29.1484ZM138.862 27.6133C139.713 27.6758 140.346 27.9336 140.76 28.3867V35.4883C141.573 35.0742 142.635 34.8672 143.948 34.8672C145.291 34.8672 146.385 35.3594 147.229 36.3438C148.08 37.3281 148.506 38.6523 148.506 40.3164C148.506 41.0977 148.393 41.8555 148.166 42.5898C147.948 43.3242 147.604 44.0156 147.135 44.6641C146.674 45.3125 146.034 45.832 145.213 46.2227C144.401 46.6211 143.459 46.8203 142.389 46.8203C140.116 46.8203 138.268 46.2344 136.846 45.0625C136.94 40.2969 136.94 35.4336 136.846 30.4727C136.338 30.3086 135.627 30.2031 134.713 30.1562C134.534 29.6484 134.541 29.1602 134.737 28.6914C136.127 28.5664 137.502 28.207 138.862 27.6133ZM144.334 40.8672C144.334 39.9531 144.166 39.1719 143.83 38.5234C143.495 37.875 142.998 37.5039 142.342 37.4102C141.795 37.4883 141.268 37.7578 140.76 38.2188C140.76 40.5781 140.776 42.5234 140.807 44.0547C141.159 44.6328 141.662 44.9688 142.319 45.0625C142.866 44.9375 143.338 44.543 143.737 43.8789C144.135 43.2148 144.334 42.2109 144.334 40.8672Z" fill="white"/>
<defs>
<clipPath id="clip0_4_110">
<rect width="74" height="74" fill="white"/>
</clipPath>
</defs>
</svg>
